<svg width="100" height="100" viewBox="0 0 100 100" fill="none" xmlns="http://www.w3.org/2000/svg">
<g clip-path="url(#clip0_91_157)">
<path d="M0 50C0 22.3858 22.3858 0 50 0C77.6142 0 100 22.3858 100 50C100 77.6142 77.6142 100 50 100C22.3858 100 0 77.6142 0 50Z" fill="#7011FF"/>
<path fill-rule="evenodd" clip-rule="evenodd" d="M22 25.442C22 27.342 23.558 28.884 25.479 28.884H54.31C57.596 28.884 60.302 29.887 62.428 31.895C64.554 33.903 65.617 36.484 65.617 39.639C65.617 42.555 64.554 44.945 62.427 46.809C60.302 48.626 57.596 49.534 54.31 49.534H41.78C39.858 49.534 38.3 51.074 38.3 52.976C38.3 54.876 39.858 56.417 41.78 56.417H55.616L68.082 76.207C68.855 77.403 69.942 78 71.343 78C72.89 78 73.977 77.403 74.605 76.207C75.233 74.965 75.112 73.65 74.243 72.264L63.153 54.624C66.149 53.286 68.517 51.327 70.256 48.745C71.996 46.116 72.866 43.081 72.866 39.639C72.866 36.149 72.068 33.09 70.474 30.461C68.927 27.831 66.754 25.776 63.951 24.295C61.148 22.764 57.935 22 54.31 22H25.48C23.558 22 22 23.54 22 25.442Z" fill="white"/>
</g>
<defs>
<clipPath id="clip0_91_157">
<rect width="100" height="100" fill="white"/>
</clipPath>
</defs>
</svg>
